<svg id="Capa_1" data-name="Capa 1" xmlns="http://www.w3.org/2000/svg" viewBox="0 0 71 70"><defs><style>.cls-1{fill:#fff}</style></defs><path class="cls-1" d="M41.78 51.47c1.9 2.1 2.29 4.5 2.27 7s0 5.36 0 8c0 2.43.84 3 3.14 2.18A34.6 34.6 0 0070 37.89a33.78 33.78 0 00-11.6-27.7C50 2.66 39.85-.24 28.87 2.08 7 6.7-2.75 27.31 2.15 45.17 5.32 56.7 12.76 64.54 23.94 68.8c2 .77 3 .09 3-2.09 0-1.36-.05-2.72 0-4.08.06-1-.2-1.24-1.27-1.06-4.53.74-8.94-.48-10.75-5.55a9 9 0 00-3.45-4.36c-.57-.4-1.53-.8-1.16-1.56s1.37-.47 2.1-.32a6.28 6.28 0 012.93 1.56 11.34 11.34 0 011.79 2.24 7.14 7.14 0 009.23 2.78 1 1 0 00.75-.83 8.09 8.09 0 012.05-4.1l-1.75-.3A18.26 18.26 0 0117.9 47c-4.67-4.15-6.29-15.69-1.53-21.12a1.72 1.72 0 00.39-1.88 12 12 0 01.09-6.51c.49-1.84.7-2 2.61-1.55a18.07 18.07 0 016.2 2.77 2.9 2.9 0 002.48.42 30.65 30.65 0 0114.25-.09 3.86 3.86 0 003.25-.53 15.73 15.73 0 016.72-2.69 1.22 1.22 0 011.55 1 12.46 12.46 0 01.21 7.31 1.45 1.45 0 00.31 1.53 12.26 12.26 0 012.18 3.83 18.16 18.16 0 01.33 9.82C55.8 45.2 52.27 48.87 46.5 50.4c-1.5.44-3.03.7-4.72 1.07z"/><path class="cls-1" d="M41.78 51.47c1.69-.36 3.23-.62 4.73-1 5.76-1.53 9.3-5.2 10.44-11.09a18.16 18.16 0 00-.33-9.82 12.26 12.26 0 00-2.18-3.83 1.45 1.45 0 01-.31-1.53 12.46 12.46 0 00-.21-7.31 1.22 1.22 0 00-1.55-1 15.73 15.73 0 00-6.72 2.69 3.86 3.86 0 01-3.25.53 30.65 30.65 0 00-14.25.09 2.9 2.9 0 01-2.48-.42A18.07 18.07 0 0019.46 16c-1.91-.4-2.11-.3-2.61 1.55a12 12 0 00-.09 6.45 1.72 1.72 0 01-.38 1.83c-4.76 5.43-3.15 17 1.53 21.12a18.26 18.26 0 009.51 4.16l1.75.3a8.09 8.09 0 00-2.05 4.1 1 1 0 01-.75.83 7.14 7.14 0 01-9.23-2.78 11.34 11.34 0 00-1.79-2.24 6.28 6.28 0 00-2.93-1.56c-.73-.16-1.74-.42-2.1.32s.59 1.17 1.16 1.56A9 9 0 0114.93 56c1.82 5.07 6.22 6.29 10.75 5.55 1.07-.17 1.33 0 1.27 1.06-.08 1.36 0 2.72 0 4.08 0 2.17-1 2.86-3 2.09C12.76 64.54 5.32 56.7 2.15 45.17-2.75 27.31 7 6.7 28.87 2.08c11-2.32 21.17.58 29.53 8.11A33.78 33.78 0 0170 37.89a34.6 34.6 0 01-22.82 30.83c-2.3.83-3.14.25-3.14-2.18v-8c0-2.64-.36-4.98-2.26-7.07z"/></svg>