<svg id="Capa_1" data-name="Capa 1" xmlns="http://www.w3.org/2000/svg" viewBox="0 0 68 69"><defs><style>.cls-1{fill:#fff}</style></defs><path class="cls-1" d="M34.08 1.07A33.43 33.43 0 11.54 33.88 33.44 33.44 0 0134.08 1.07zM55.4 24.35a11.38 11.38 0 00-11.52-11.24h-20A11.36 11.36 0 0012.62 24q-.17 10.13 0 20.27c.1 6.87 5 11.57 11.87 11.59h15.24a38.34 38.34 0 006.23-.15c5.68-1 9.37-5.51 9.46-11.69"/><path class="cls-1" d="M52 34.46c0 3 .13 6 0 9a9.45 9.45 0 01-9.57 9.11q-8.33.07-16.67 0c-5.63 0-9.67-4.18-9.73-10q-.08-8 0-16C16 20.4 20 16.44 26.23 16.44h16a9.5 9.5 0 019.63 7.72 24.67 24.67 0 01.13 4.79v5.52zm-29.81 0A11.87 11.87 0 1034.1 22.81a11.75 11.75 0 00-11.94 11.65zM49.56 23.4a3.24 3.24 0 00-3.28-3.4 3.41 3.41 0 00-3.43 3.39 3.46 3.46 0 003.41 3.32 3.34 3.34 0 003.3-3.31z"/><path class="cls-1" d="M25.52 34.46a8.5 8.5 0 118.38 8.37 8.39 8.39 0 01-8.38-8.37z"/></svg>