<svg data-name="Capa 1" xmlns="http://www.w3.org/2000/svg" viewBox="0 0 69 70"><path d="M37.1 69.57h-5.76c-.15-.35-.47-.23-.73-.26a35.24 35.24 0 01-9.71-2.47c-15-6.4-23.27-22-20.31-38.36C4.11 9.06 22.84-2.3 40.7 1c19 3.51 31.53 22 27.57 40.69-3 14.14-11.88 22.94-25.68 26.91-1.8.52-3.68.54-5.49.97zm.51-39a6 6 0 01-.09-2.24c.1-.74-.19-1-.93-1h-5.16c-2.38 0-2.37 0-2.38 2.35 0 7.24 0 14.47-.1 21.71 0 1 .3 1.32 1.29 1.29 2-.07 4.08-.07 6.12 0 1 0 1.24-.37 1.18-1.27-.24-3.83.1-7.67 0-11.51v-2.28a4.59 4.59 0 014.33-4.21c2-.15 3.58 1.14 4.13 3.39a10.44 10.44 0 01.23 2.5v12.24c0 .67.06 1.17.94 1.16q3.36-.06 6.72 0c.65 0 .85-.26.84-.85-.07-5.32.21-10.64-.15-15.95-.31-4.54-3-7.89-6.87-8.81s-7.41-.09-10.1 3.45zM16 39.93v11.63c0 .82.21 1.12 1.07 1.11h6.47c.79 0 .93-.34.93-1V28.28c0-.83-.31-1-1.06-1-2.12 0-4.24.05-6.36 0-.87 0-1.07.3-1.06 1.11.01 3.86.01 7.7.01 11.54zm4.16-16C22.93 24 25 22.16 25 19.61a4.4 4.4 0 00-4.71-4.48c-2.76 0-4.73 1.77-4.78 4.29A4.39 4.39 0 0020.14 24z" fill="#fff"/></svg>